<?xml version="1.0" encoding="UTF-8" standalone="no"?>
<svg xmlns:rdf="http://www.w3.org/1999/02/22-rdf-syntax-ns#" xmlns="http://www.w3.org/2000/svg" height="48" width="48" version="1.1" xmlns:cc="http://creativecommons.org/ns#" xmlns:dc="http://purl.org/dc/elements/1.1/" viewBox="0 0 48 48">
 <metadata>
  <rdf:RDF>
   <cc:Work rdf:about="">
    <dc:format>image/svg+xml</dc:format>
    <dc:type rdf:resource="http://purl.org/dc/dcmitype/StillImage"/>
    <dc:title/>
    <cc:license rdf:resource="http://creativecommons.org/publicdomain/zero/1.0/"/>
    <dc:source>https://pixabay.com/fr/nautilus-escargot-pr%C3%A9historique-311851/</dc:source>
   </cc:Work>
   <cc:License rdf:about="http://creativecommons.org/publicdomain/zero/1.0/">
    <cc:permits rdf:resource="http://creativecommons.org/ns#Reproduction"/>
    <cc:permits rdf:resource="http://creativecommons.org/ns#Distribution"/>
    <cc:permits rdf:resource="http://creativecommons.org/ns#DerivativeWorks"/>
   </cc:License>
  </rdf:RDF>
 </metadata>
 <g stroke-width="0" transform="matrix(0 .20060 .20060 0 68.284 -11.779)" fill="#002b36">
  <path d="m268.77-320.84c-10.462-9.6933-46.699-16.07-82.78-9.703s-54.274 16.676-59.731 44.268 9.097 43.662 16.07 48.21 15.161 10.612 30.624 3.335 27.592-7.225 43.964-2.08c15.913 5.0006 20.29 15.193 20.29 15.193s34.065-28.405 39.337-52.825c4.2715-19.786 0.44825-38.56-7.7745-46.398z"/>
  <path d="m130.75-308.41s-12.135 20.082-8.806 45.318-3.759 2.685-3.437 4.94c0 0 1.985 2.041 5.342 1.826 0 0 9.588 29.854 38.902 29.103 0 0-6.338 5.799-10.526 12.242s-11.705 8.162-18.686 7.41-20.83-1.612-29.744-15.25-10.82-27.422-10.82-35.867c0-15.786 16.514-34.688 37.775-49.722z"/>
  <path d="m88.698-258.51s-0.50101 23.001 14.22 41.615-1.305 2.802 0.03 4.454c0 0 2.561 0.687 5.139-1.086 0 0 20.313 19.888 43.361 5.306 0 0-0.685 7.246-1.976 14.288-0.92099 5.024-6.307 12.012-10.339 14.812-5.365 3.725-17.404 8.645-31.043 1.978-13.64-6.665-21.75-16.789-25.787-23.55-7.546-12.637-3.395-35.644 6.395-57.817z"/>
  <path d="m80.978-197.92s8.827 17.903 28.81 25.295 0.55499 3.783 2.349 4.426c0 0 2.271-0.65201 3.396-3.182 0 0 24.838 5.795 35.488-15.859 0 0 2.898 5.82 5.239 11.765 1.671 4.241 0.87201 12.021-0.875 15.997-2.323 5.293-9.16 14.555-22.68 15.744-13.521 1.191-24.468-2.781-30.729-6.067-11.703-6.142-17.981-26.778-20.998-48.119z"/>
  <path d="m100.79-145.51s14.685 8.117 33.319 5.488 1.739 2.366 3.398 2.172c0 0 1.507-0.992 1.404-3.416 0 0 21.916-7.21 21.836-28.368 0 0 6.141 3.791 10.296 7.546 2.965 2.679 4.279 10.259 4.458 14.063 0.23801 5.061-2.594 16.432-12.746 22.638-10.152 6.208-19.933 7.57-26.131 7.432-11.583-0.258-25.144-11.975-35.834-27.555z"/>
  <path d="m140.87-114.87s15.722-1.188 28.522-11.976 0.75601-0.022 2.056-0.68298c0 0 1.104-1.051 0.97501-2.525 0 0 13.108-15.792 3.05-31.697 0 0 6.417-0.046 11.323 0.819 3.501 0.61801 8.074 5.709 10.007 8.49 2.57 3.7 5.811 13.608 1.094 23.083-4.718 9.477-11.443 15.125-16.18 17.952-8.851 5.281-25.428 3.225-40.847-3.463z"/>
  <path d="m185.27-109.01s12.766-7.135 18.536-21.286 0.63-0.314 1.422-1.382c0 0 0.439-1.322-0.36301-2.524 0 0 3.675-18.524-12.337-28.12 0 0 4.208-2.177 8.769-3.374 5.401-1.418 10.746 1.365 13.692 2.976 3.92 2.142 8.852 9.313 9.315 19.201 0.461 9.89-2.117 15.832-4.802 20.078-5.015 7.935-18.015 14.106-34.232 14.431z"/>
  <path d="m223.9-123.86s6.648-11.684 4.751-25.706 0.345-0.54401 0.479-1.771c0 0-0.25601-1.263-1.413-1.85 0 0-5.477-16.539-22.137-16.72 0 0 2.27-3.713 5.251-6.805 3.531-3.663 8.903-3.938 11.901-4.029 3.984-0.121 11.007 3.308 15.802 11.001 4.794 7.695 5.471 13.655 5.306 18.31-0.31 8.697-7.573 19.72-19.94 27.57z"/>
  <path d="m245.5-153s0.174-12.249-7.568-22.521 0.036-0.586-0.399-1.619c0 0-0.767-0.88699-1.957-0.832 0 0-11.738-10.661-25.226-3.33 0 0 0.181-3.963 1.209-7.754 1.221-4.489 5.423-7.117 7.796-8.535 3.152-1.883 10.323-2.313 17.594 1.637 7.268 3.953 10.453 8.377 12.383 12.143 3.603 7.036 2.642 19.038-3.832 30.811z"/>
  <path d="m248.91-188.83s-4.762-5.492-14.939-10.874-0.231-0.38901-1.153-0.905c0 0-0.72401-0.349-1.708-0.16901 0 0-13.705-4.055-22.566 7.651 0 0-1.239-3.387-1.7-6.98-0.543-4.256 2.097-8.191 3.611-10.357 2.012-2.878 7.444-5.552 15-5.258 7.553 0.297 9.927 1.861 12.888 4.21 5.531 4.389 9.02 10.395 10.567 22.682z"/>
  <path d="m235.37-216.25s-5.896-2.286-15.915-2.015-0.336-0.21001-1.256-0.209c0 0-0.69699 0.046-1.381 0.64099 0 0-12.188 2.956-14.225 16.492 0 0-2.332-2.184-4.153-4.889-2.152-3.207-1.729-7.602-1.448-10.05 0.373-3.252 3.458-7.897 9.385-11.102 5.926-3.201 8.389-3.014 11.622-2.458 6.042 1.042 11.175 4.325 17.371 13.59z"/>
  <path d="m212.15-233.16s-5.376 0.88701-12.655 5.528-0.343-0.01-1.02 0.39801c0 0-0.495 0.34399-0.735 1.095 0 0-7.687 7.625-3.156 18.735 0 0-3.331 0.025-5.882-1.209-3.02-1.465-3.787-4.749-4.915-7.576-1.063-2.665-0.96701-7.486 1.982-12.527 2.949-5.037 4.854-5.987 7.489-7 4.929-1.89 10.184-1.688 18.892 2.556z"/>
  <path d="m187.08-234.9s-3.859 3.068-7.408 10.029-0.27902 0.14099-0.62003 0.769c0 0-0.22699 0.49699-0.052 1.214 0 0-2.42 9.571 6.614 16.653 0 0-2.646 1.474-5.283 1.581-3.128 0.123-5.342-2.22-7.62-4.033-2.149-1.709-4.425-5.683-4.526-11.08-0.104-5.394 0.95398-7 2.564-8.975 3.014-3.69 7.308-5.818 16.331-6.158z"/>
  <path d="m178.65-201.64s-15.89-1.631-12.809-22.475-11.058 8.096-5.801 20.904c0.001 0 9.125 13.352 18.61 1.571z"/>
  <path d="m175.52-195.01s-12.02 7.376-20.646-10.117-3.479 11.538 6.853 18.412c-0.001 0 13.224 5.791 13.793-8.295z"/>
  <path d="m175.63-187.06s-6.391 10.399-20.54-0.94 1.307 11.468 12.742 12.338c0-0.00003 13.26 0.42899 7.798-11.398z"/>
  <path d="m181.14-182.46s-1.021 12.164-18.762 8.413 7.213 9.506 16.251 4.966c9.039-4.539 4.501-11.668 2.511-13.379z"/>
  <path d="m185.28-180.7s4.779 9.445-9.426 15.066 9.385 3.596 13.704-4.021c4.321-7.617-2.102-10.725-4.278-11.045z"/>
  <path d="m190.65-181.03s8.023 5.516-0.963 16.317 9.16-1.237 9.287-9.29c0.129-8.053-6.426-7.729-8.324-7.027z"/>
  <path d="m195.06-184s8.434 0.77499 6.206 12.794 6.427-4.833 3.099-10.999c-3.325-6.166-8.163-3.134-9.305-1.795z"/>
  <path d="m197.14-189.32s6.784-2.808 9.926 7.313 2.98-6.303-2.063-9.69c-5.038-3.39-7.527 0.88901-7.863 2.377z"/>
  <path d="m195.5-192.46s2.115-5.906 10.325-2.089-2.28-5.502-7.319-4.253c-5.036 1.245-3.755 5.276-3.006 6.342z"/>
  <path d="m192.85-195.72s-1.144-5.238 6.537-6.192-4.147-2.954-7.232 0.23399c-3.086 3.186-0.32999 5.525 0.69501 5.958z"/>
  <path d="m188.97-196.7s-3.349-3.25 1.765-7.636-4.431-0.148-5.135 3.649c-0.707 3.793 2.418 4.165 3.37 3.987z"/>
  <path d="m185.32-195.41s-3.889-0.774-2.263-6.262-3.23 1.938-1.98 4.972c1.245 3.032 3.645 1.857 4.243 1.29z"/>
  <path d="m183.1-192.97s-2.583 1.553-4.475-2.364-0.82599 2.741 1.429 3.808c2.25 1.069 3-0.82001 3.046-1.444z"/>
 </g>
</svg>
